<?xml version="1.0" encoding="UTF-8"?>
<!--
  屯象OS · Omega Elephant Mark (Favicon)
  用于浏览器标签图标 — 纯 Ω 图形，无背景容器
  品牌色 #FF6B2C
-->
<svg xmlns="http://www.w3.org/2000/svg" viewBox="0 0 80 80" width="80" height="80">
  <!-- Squircle 背景 -->
  <path d="M40,2 C58,2 68,2 73,7 C78,12 78,22 78,40 C78,58 78,68 73,73 C68,78 58,78 40,78 C22,78 12,78 7,73 C2,68 2,58 2,40 C2,22 2,12 7,7 C12,2 22,2 40,2 Z" fill="#FF6B2C"/>
  <!-- Ω 符号 -->
  <g transform="translate(40, 38)" fill="none" stroke="white" stroke-width="5" stroke-linecap="round" stroke-linejoin="round">
    <path d="M-14,15 L-14,8 C-14,-10 -6,-18 0,-18 C6,-18 14,-10 14,8 L14,15"/>
    <line x1="-20" y1="15" x2="-9" y2="15"/>
    <line x1="9" y1="15" x2="20" y2="15"/>
  </g>
</svg>
